<?xml version="1.0"?>
<svg xmlns="http://www.w3.org/2000/svg" width="220" height="213.333" viewBox="0 0 220 213.333">
  <defs>
    <filter height="4.759" y="-1.88" width="4.028" x="-1.514" id="b" color-interpolation-filters="sRGB">
      <feGaussianBlur stdDeviation="21.537"/>
    </filter>
    <filter id="a" x="-.105" width="1.209" y="-.013" height="1.026" color-interpolation-filters="sRGB">
      <feGaussianBlur stdDeviation=".613"/>
    </filter>
  </defs>
  <path d="M22.178 192.547l-12.16 12.16h194.569l-12.161-12.16z" fill="#4d4d4d" fill-rule="evenodd"/>
  <path d="M204.587 10.09l-12.161 12.16v170.248l12.16 12.16z" fill="gray" fill-rule="evenodd"/>
  <path d="M10.017 10.09v194.569l12.16-12.16V22.25z" fill="#999" fill-rule="evenodd"/>
  <path d="M10.017 10.09l12.16 12.16h170.249l12.16-12.16z" fill="#b3b3b3" fill-rule="evenodd"/>
  <path fill="#5b494d" fill-rule="evenodd" d="M22.178 22.25h170.248v170.248H22.178z"/>
  <g color="#000">
    <path transform="matrix(1.36432 0 0 1.21137 3.964 -1047.283)" style="isolation:auto;mix-blend-mode:normal;solid-color:#000;solid-opacity:1" overflow="visible" fill="gray" filter="url(#a)" enable-background="accumulate" d="M90.938 896.735h14.063v114.219H90.938z"/>
    <path style="isolation:auto;mix-blend-mode:normal;solid-color:#000;solid-opacity:1" overflow="visible" enable-background="accumulate" d="M128.522 39.889h17.706v137.187h-17.706z"/>
  </g>
  <path d="M104.437 30.935l2 153.414" fill="none" stroke="#d43232" stroke-width="7.0482837599999995"/>
  <g style="line-height:1.25;-inkscape-font-specification:'OCR A Extended'" aria-label="INSERT COIN TO PLAY" font-weight="700" font-size="10.91" font-family="sans-serif" letter-spacing="0" word-spacing="0" fill="#d43232" stroke-width=".273" text-anchor="middle">
    <path style="-inkscape-font-specification:sans-serif;text-align:center" d="M42.39 54.897h2.428v9.93H42.39zM47.21 54.897h2.712l3.426 6.811v-6.81h2.303v9.93h-2.713l-3.426-6.811v6.81H47.21zM64.591 55.21v2.102q-.776-.366-1.514-.552-.738-.187-1.394-.187-.87 0-1.287.253-.417.253-.417.785 0 .4.278.625.284.22 1.022.38l1.035.219q1.57.332 2.233 1.01.663.68.663 1.93 0 1.643-.928 2.447-.921.799-2.82.799-.896 0-1.798-.18t-1.805-.532v-2.162q.903.506 1.742.765.845.253 1.627.253.795 0 1.218-.28.423-.279.423-.798 0-.465-.29-.718-.284-.253-1.142-.452l-.94-.22q-1.414-.32-2.07-1.017-.65-.699-.65-1.883 0-1.483.909-2.281.908-.798 2.612-.798.776 0 1.596.126.82.12 1.697.366zM67.348 54.897h6.556v1.936h-4.127v1.849h3.88v1.935h-3.88v2.275h4.266v1.936h-6.695zM79.632 59.3q.764 0 1.092-.299.334-.3.334-.984 0-.679-.334-.971-.328-.293-1.092-.293H78.61V59.3zm-1.022 1.77v3.758h-2.429v-9.93h3.71q1.861 0 2.726.658.87.658.87 2.082 0 .984-.454 1.616-.448.632-1.356.931.498.12.89.545.397.42.8 1.278l1.32 2.82h-2.588l-1.148-2.468q-.347-.745-.707-1.018-.353-.272-.946-.272zM84.421 54.897h8.682v1.936H89.98v7.995h-2.43v-7.995h-3.129zM45.645 81.679q-.669.366-1.395.552-.725.186-1.514.186-2.353 0-3.729-1.383-1.375-1.39-1.375-3.765 0-2.381 1.375-3.765 1.376-1.39 3.73-1.39.788 0 1.513.186.726.187 1.395.552v2.056q-.675-.486-1.332-.712-.656-.226-1.381-.226-1.3 0-2.044.878-.745.878-.745 2.42 0 1.537.745 2.415.744.878 2.044.878.725 0 1.381-.226.657-.226 1.332-.711zM51.967 73.97q-1.11 0-1.723.865-.612.864-.612 2.434 0 1.563.612 2.428.612.864 1.723.864 1.116 0 1.728-.864.612-.865.612-2.428 0-1.57-.612-2.434-.612-.865-1.728-.865zm0-1.856q2.27 0 3.558 1.37 1.287 1.37 1.287 3.785 0 2.408-1.287 3.778t-3.558 1.37q-2.265 0-3.559-1.37-1.287-1.37-1.287-3.778 0-2.414 1.287-3.785 1.294-1.37 3.559-1.37zM58.642 72.294h2.429v9.93h-2.43zM63.462 72.294h2.713l3.426 6.81v-6.81h2.303v9.93H69.19l-3.426-6.81v6.81h-2.303zM77.658 72.294h8.681v1.935h-3.123v7.995h-2.429V74.23h-3.13zM91.891 73.97q-1.11 0-1.722.865-.612.864-.612 2.434 0 1.563.612 2.428.612.864 1.722.864 1.117 0 1.729-.864.612-.865.612-2.428 0-1.57-.612-2.434-.612-.865-1.729-.865zm0-1.856q2.272 0 3.559 1.37 1.287 1.37 1.287 3.785 0 2.408-1.287 3.778t-3.559 1.37q-2.265 0-3.558-1.37-1.287-1.37-1.287-3.778 0-2.414 1.287-3.785 1.293-1.37 3.558-1.37zM50.465 89.69h4.032q1.798 0 2.757.845.965.838.965 2.394 0 1.564-.965 2.408-.96.838-2.757.838h-1.603v3.446h-2.429zm2.429 1.856v2.774h1.344q.707 0 1.091-.36.385-.365.385-1.03 0-.666-.385-1.025-.384-.359-1.091-.359zM59.929 89.69h2.429v7.995h4.265v1.936h-6.694zM73.872 97.812h-3.798l-.6 1.809h-2.441l3.489-9.93h2.896l3.489 9.93h-2.442zm-3.192-1.843h2.58l-1.287-3.95zM75.6 89.69h2.657l2.145 3.539 2.145-3.539h2.663l-3.59 5.747v4.184h-2.43v-4.184z"/>
  </g>
  <g style="line-height:1.25;-inkscape-font-specification:'OCR A Extended'" aria-label="PUSH TO REJECT" font-weight="400" font-size="6.764" font-family="sans-serif" letter-spacing="0" word-spacing="0" fill="#d43232" stroke-width=".169" text-anchor="middle">
    <path style="-inkscape-font-specification:sans-serif;text-align:center" d="M39.372 160.045v2.569h.894q.497 0 .768-.334.271-.335.271-.953 0-.614-.27-.948-.272-.334-.769-.334zm-.711-.76h1.605q.884 0 1.335.521.455.518.455 1.521 0 1.012-.455 1.53-.45.517-1.335.517h-.894v2.748h-.711zM42.932 159.284h.715v4.154q0 1.1.307 1.585.306.481.993.481.683 0 .99-.48.306-.486.306-1.586v-4.154h.715v4.269q0 1.337-.51 2.02-.508.682-1.501.682-.997 0-1.507-.682-.508-.683-.508-2.02zM51.448 159.509v.902q-.405-.252-.764-.376-.36-.123-.694-.123-.581 0-.898.293-.313.293-.313.833 0 .454.207.687.212.23.796.371l.43.115q.796.197 1.173.696.38.495.38 1.328 0 .994-.514 1.507-.51.513-1.5.513-.374 0-.796-.11-.42-.11-.87-.325v-.953q.433.316.849.477.415.16.817.16.609 0 .94-.312.331-.311.331-.888 0-.504-.24-.788-.235-.284-.778-.426l-.433-.11q-.796-.206-1.152-.645-.355-.44-.355-1.223 0-.907.49-1.43.492-.521 1.355-.521.37 0 .754.087t.785.26zM52.874 159.284h.712v2.803h2.585v-2.803h.711v6.838h-.711v-3.256h-2.585v3.256h-.712zM59.865 159.284h4.448v.779h-1.866v6.06h-.715v-6.06h-1.867zM67.138 159.912q-.775 0-1.233.75-.454.752-.454 2.048 0 1.292.454 2.043.458.751 1.233.751.774 0 1.225-.751.455-.751.455-2.043 0-1.296-.455-2.047-.45-.751-1.225-.751zm0-.751q1.106 0 1.768.966.662.962.662 2.583 0 1.617-.662 2.583-.662.962-1.768.962-1.11 0-1.775-.962-.662-.962-.662-2.583 0-1.621.662-2.583.665-.966 1.775-.966zM75.47 162.916q.23.101.444.43.218.33.437.908l.722 1.868h-.765l-.672-1.754q-.26-.687-.507-.911-.243-.225-.666-.225h-.775v2.89h-.711v-6.838h1.606q.901 0 1.345.49.444.49.444 1.48 0 .646-.233 1.071-.229.426-.669.591zm-1.782-2.871v2.427h.895q.514 0 .774-.307.265-.311.265-.911 0-.6-.265-.903-.26-.306-.774-.306zM77.992 159.284h3.324v.779h-2.613v2.024h2.504v.779h-2.504v2.478h2.677v.778h-3.388zM82.556 159.284h.711v6.362q0 1.237-.362 1.795-.36.559-1.159.559h-.271v-.779h.222q.472 0 .665-.343.194-.344.194-1.232zM84.683 159.284h3.325v.779h-2.613v2.024h2.504v.779h-2.504v2.478h2.676v.778h-3.388zM93.185 159.811v.976q-.36-.436-.768-.65-.405-.216-.863-.216-.901 0-1.38.719-.48.715-.48 2.07 0 1.351.48 2.07.479.715 1.38.715.458 0 .863-.215.409-.216.768-.65v.966q-.374.33-.793.494-.415.165-.88.165-1.194 0-1.88-.948-.687-.953-.687-2.597 0-1.649.686-2.597.687-.952 1.88-.952.473 0 .888.165.42.16.786.485zM93.562 159.284h4.448v.779h-1.867v6.06h-.715v-6.06h-1.866z"/>
  </g>
  <path fill="none" stroke="#d43232" stroke-width="5.443" stroke-linecap="round" stroke-linejoin="bevel" stroke-dashoffset="1.212" paint-order="stroke fill markers" d="M31.435 30.888h153.009v154.508H31.435z"/>
  <g>
    <path d="M173.08 48.102c19.65 0 35.575 25.274 35.575 56.456 0 31.184-15.926 56.464-35.575 56.464-.95 0-1.893-.058-2.825-.174 18.328-2.286 32.755-26.617 32.755-56.291 0-29.675-14.427-53.998-32.755-56.283a22.823 22.823 0 012.825-.175z" color="#000" fill="#d5b04f"/>
    <path d="M178.21 48.686c2.272.522 4.474 1.384 6.587 2.553a60.742 60.742 0 01-5.238.236c-1.947-1.12-3.971-1.983-6.06-2.553a58.99 58.99 0 014.71-.236zm6.553 6.469c2.18 0 4.19.098 5.839.262a37.673 37.673 0 012.06 2.002c-1.304.23-3.116.4-5.2.48a37.898 37.898 0 00-2.798-2.744h.1zm6.225 6.486c2.06.029 3.933.147 5.436.323.458.632.907 1.281 1.344 1.95-1.346.23-3.211.396-5.343.471a49.667 49.667 0 00-1.884-2.744c.149 0 .3-.002.447 0zm4.285 6.468c1.92.027 3.68.131 5.128.288.358.682.702 1.38 1.04 2.09-1.443.205-3.336.35-5.458.401a60.632 60.632 0 00-1.382-2.78c.225 0 .45-.002.672 0zm2.308 6.468c2.152.006 4.133.105 5.75.271.277.71.546 1.428.804 2.159-1.498.19-3.403.322-5.519.358a69.322 69.322 0 00-1.035-2.788zm3.288 6.477c1.662 0 3.228.058 4.61.157.23.802.443 1.617.65 2.439-1.532.131-3.33.201-5.26.201h-.33a76.864 76.864 0 00-.75-2.788c.355-.006.715-.01 1.08-.01zm2.594 6.477c1.257 0 2.454.037 3.564.096.168.849.32 1.713.462 2.578a66.668 66.668 0 01-5.623.105 82.763 82.763 0 00-.502-2.753c.678-.02 1.379-.026 2.099-.026zm3.106 6.477c.504.007.987.026 1.466.043.106.895.196 1.792.275 2.701a69.84 69.84 0 01-5.64-.008 87.237 87.237 0 00-.276-2.666c.993-.046 2.05-.07 3.151-.07.347 0 .686-.005 1.024 0zm-1.024 6.468c1.052 0 2.065.02 3.018.061.04.885.064 1.77.077 2.666a70.345 70.345 0 01-5.646.026c-.013-.91-.036-1.81-.076-2.71.84-.03 1.716-.043 2.627-.043zm0 6.477c1.073 0 2.104.026 3.074.07a90.1 90.1 0 01-.11 2.666 69.588 69.588 0 01-5.652.008c.051-.893.092-1.795.116-2.7.823-.03 1.681-.044 2.572-.044zm0 6.477c.925 0 1.815.02 2.666.052a86.65 86.65 0 01-.314 2.71c-.756.025-1.54.035-2.352.035-1.156 0-2.26-.03-3.294-.079.116-.878.225-1.764.314-2.657.942-.04 1.942-.061 2.98-.061zm1.024 6.477c.258.003.498.01.75.017-.166.932-.346 1.86-.54 2.77-.405.008-.816.01-1.234.01-1.576 0-3.061-.05-4.39-.14.178-.841.348-1.686.501-2.544 1.198-.07 2.51-.113 3.889-.113.347 0 .686-.005 1.024 0zm-3.883 6.468c1.119 0 2.19.023 3.195.07a76.18 76.18 0 01-.76 2.683 70.215 70.215 0 01-5.64-.026c.268-.881.52-1.778.76-2.684.785-.027 1.6-.043 2.445-.043zm-1.04 6.477c.761 0 1.5.012 2.213.035a68.146 68.146 0 01-1.079 2.753 65.404 65.404 0 01-5.59-.14 67.96 67.96 0 001.002-2.56 68.112 68.112 0 013.453-.088zm-4.677 6.477c1.454 0 2.833.045 4.082.122-.445.897-.91 1.77-1.388 2.622a69.837 69.837 0 01-5.64-.009c.494-.882.972-1.787 1.431-2.718.496-.01.999-.017 1.515-.017zm-2.594 6.468c1.03 0 2.022.021 2.958.061-.64.947-1.301 1.857-1.983 2.727-.32.004-.646.009-.975.009-1.643 0-3.19-.052-4.56-.149a47.973 47.973 0 001.883-2.596 69.824 69.824 0 012.677-.052zm-6.5 6.477c1.463 0 2.85.044 4.104.122a35.74 35.74 0 01-2.98 2.666 65.767 65.767 0 01-5.486-.131 36.033 36.033 0 002.925-2.64c.47-.01.948-.017 1.438-.017zm-8.697 6.477c1.309 0 2.555.041 3.702.105-3.114 1.412-6.405 2.167-9.804 2.167-.797 0-1.585-.04-2.369-.122-.11-.024-.215-.045-.314-.07 2.407-.316 4.748-1.016 6.995-2.054a71.282 71.282 0 011.79-.026z" fill="#c89c31" fill-rule="evenodd"/>
    <path d="M177.725 48.102c19.65 0 35.575 25.274 35.575 56.456 0 31.184-15.926 56.464-35.575 56.464-.95 0-1.893-.058-2.825-.174 18.328-2.286 32.755-26.617 32.755-56.291 0-29.675-14.427-53.998-32.755-56.283a22.823 22.823 0 012.825-.175z" color="#000" fill="#d5b04f"/>
    <path d="M182.854 48.686c2.273.522 4.475 1.384 6.588 2.553a60.742 60.742 0 01-5.238.236c-1.947-1.12-3.971-1.983-6.06-2.553a58.99 58.99 0 014.71-.236zm6.555 6.469c2.18 0 4.19.098 5.838.262a37.673 37.673 0 012.06 2.002c-1.304.23-3.116.4-5.2.48a37.898 37.898 0 00-2.797-2.744h.099zm6.224 6.486c2.06.029 3.933.147 5.436.323.458.632.907 1.281 1.344 1.95-1.346.23-3.211.396-5.343.471a49.667 49.667 0 00-1.883-2.744c.148 0 .3-.002.446 0zm4.285 6.468c1.92.027 3.68.131 5.128.288.358.682.702 1.38 1.04 2.09-1.443.205-3.336.35-5.458.401a60.632 60.632 0 00-1.382-2.78c.225 0 .451-.002.672 0zm2.308 6.468c2.152.006 4.133.105 5.75.271.277.71.546 1.428.804 2.159-1.498.19-3.403.322-5.519.358a69.322 69.322 0 00-1.035-2.788zm3.288 6.477c1.663 0 3.228.058 4.61.157.23.802.443 1.617.65 2.439-1.532.131-3.33.201-5.26.201h-.33a76.864 76.864 0 00-.75-2.788c.355-.006.715-.01 1.08-.01zm2.594 6.477c1.257 0 2.454.037 3.564.096.168.849.32 1.713.463 2.578a66.668 66.668 0 01-5.624.105 82.763 82.763 0 00-.501-2.753c.677-.02 1.378-.026 2.098-.026zm3.107 6.477c.503.007.986.026 1.465.043.106.895.196 1.792.275 2.701a69.84 69.84 0 01-5.64-.008 87.237 87.237 0 00-.275-2.666c.992-.046 2.048-.07 3.15-.07.347 0 .686-.005 1.025 0zm-1.025 6.468c1.052 0 2.065.02 3.019.061.039.885.063 1.77.077 2.666a70.345 70.345 0 01-5.646.026c-.013-.91-.037-1.81-.077-2.71.84-.03 1.716-.043 2.627-.043zm0 6.477c1.073 0 2.104.026 3.074.07a90.1 90.1 0 01-.11 2.666 69.588 69.588 0 01-5.652.008c.051-.893.092-1.795.116-2.7.823-.03 1.681-.044 2.572-.044zm0 6.477c.925 0 1.815.02 2.666.052a86.65 86.65 0 01-.314 2.71c-.756.025-1.54.035-2.352.035-1.155 0-2.26-.03-3.294-.079.116-.878.225-1.764.314-2.657.943-.04 1.942-.061 2.98-.061zm1.025 6.477c.257.003.497.01.749.017-.166.932-.345 1.86-.54 2.77-.405.008-.816.01-1.234.01-1.576 0-3.061-.05-4.39-.14.179-.841.348-1.686.502-2.544 1.197-.07 2.51-.113 3.888-.113.347 0 .686-.005 1.025 0zm-3.883 6.468c1.118 0 2.19.023 3.194.07a76.18 76.18 0 01-.76 2.683 70.215 70.215 0 01-5.64-.026c.268-.881.52-1.778.76-2.684.785-.027 1.6-.043 2.446-.043zm-1.041 6.477c.762 0 1.5.012 2.214.035a68.146 68.146 0 01-1.08 2.753 65.404 65.404 0 01-5.59-.14 67.96 67.96 0 001.002-2.56 68.112 68.112 0 013.454-.088zm-4.677 6.477c1.455 0 2.833.045 4.082.122-.445.897-.91 1.77-1.388 2.622a69.837 69.837 0 01-5.64-.009c.494-.882.972-1.787 1.432-2.718.495-.01.998-.017 1.514-.017zm-2.594 6.468c1.03 0 2.022.021 2.958.061-.64.947-1.3 1.857-1.983 2.727-.32.004-.646.009-.975.009-1.643 0-3.19-.052-4.56-.149a47.973 47.973 0 001.883-2.596 69.824 69.824 0 012.677-.052zm-6.5 6.477c1.464 0 2.85.044 4.104.122a35.74 35.74 0 01-2.98 2.666 65.767 65.767 0 01-5.486-.131 36.033 36.033 0 002.925-2.64c.47-.01.948-.017 1.438-.017zm-8.696 6.477c1.308 0 2.554.041 3.7.105-3.112 1.412-6.404 2.167-9.803 2.167-.797 0-1.585-.04-2.369-.122-.11-.024-.214-.045-.314-.07 2.408-.316 4.748-1.016 6.996-2.054a71.282 71.282 0 011.79-.026z" fill="#c89c31" fill-rule="evenodd"/>
    <path d="M131.837 104.56c0 31.184 15.93 56.463 35.58 56.463 19.649 0 35.579-25.28 35.579-56.462 0-31.184-15.93-56.463-35.58-56.463s-35.58 25.28-35.58 56.463z" color="#000" fill="#eed175"/>
    <path d="M132.735 104.976c0 30.386 15.523 55.02 34.67 55.02 19.148 0 34.67-24.634 34.67-55.02 0-30.386-15.522-55.02-34.67-55.02-19.147 0-34.67 24.634-34.67 55.02z" color="#000" fill="#c89c31"/>
    <path d="M133.853 105.103c0 29.416 15.027 53.262 33.563 53.262 18.535 0 33.562-23.846 33.562-53.262 0-29.415-15.027-53.262-33.562-53.262-18.536 0-33.563 23.847-33.563 53.262z" color="#000" fill="#ebc859"/>
    <path d="M191.807 68.052c12.73 21.38 12.492 54.976-.982 75.18-3.638 5.456-7.56 10.045-12.371 12.087 2.955-2.43 5.466-5.767 8.007-9.575 14.615-21.917 15.294-58.44 1.519-81.574-1.33-2.234-2.818-3.858-4.304-5.678 2.918 2.582 5.714 5.501 8.13 9.56z" color="#000" fill="#d2aa48"/>
    <path d="M147.056 147.603c-14.758-17.798-17.635-51.211-6.42-74.631 3.03-6.326 6.782-11.268 10.928-14.773-2.665 3.162-5.108 6.954-7.222 11.37-12.167 25.407-9.081 61.616 6.889 80.874a39.876 39.876 0 004.8 4.9c-3.145-1.792-6.174-4.36-8.975-7.74z" color="#000" fill="#f7e587"/>
    <path opacity=".601" fill="#fff" filter="url(#b)" d="M203.991 103.506h34.137v27.5h-34.137z" transform="matrix(.46452 0 0 .45178 106.875 44.478)"/>
  </g>
</svg>
